# xmcd CD database file
#
# Track frame offsets:
#	182
#	18955
#	34792
#	49250
#	51820
#	72955
#	89790
#	102927
#	129345
#	149370
#	150892
#	172685
#	190240
#
# Disc length: 2775 seconds
#
# Revision: 3
# Processed by: cddbd v1.5.2PL0 Copyright (c) Steve Scherf et al.
# Submitted via: CDex 1.51
#
DISCID=a60ad50d
DTITLE=Vic Chesnutt - Is The Actor Happy?
DYEAR=1995
DGENRE=Alt Rock
TTITLE0=Gravity Of The Situation
TTITLE1=Sad Peter Pan
TTITLE2=Strange Language
TTITLE3=Untitled
TTITLE4=Onion Soup
TTITLE5=Doubting Woman
TTITLE6=Wrong Piano
TTITLE7=Free Of Hope
TTITLE8=Betty Lonely
TTITLE9=Untitled
TTITLE10=Thumbtack
TTITLE11=Thailand
TTITLE12=Guilty By Association
EXTD=YEAR: 1995
EXTT0=
EXTT1=
EXTT2=
EXTT3=
EXTT4=
EXTT5=
EXTT6=
EXTT7=
EXTT8=
EXTT9=
EXTT10=
EXTT11=
EXTT12=
PLAYORDER=
